<svg width="15" height="29" viewBox="0 0 15 29" fill="none" xmlns="http://www.w3.org/2000/svg">
    <path d="M5.89062 28.875L11.8906 26.2437L5.89062 22.875V28.875Z" fill="#3872E9"/>
    <path d="M2.97727 15.9679C2.97727 17.9591 4.76066 19.5727 6.96137 19.5727C9.16209 19.5727 11.1514 17.949 10.9455 15.9679C10.8537 15.0843 10.5115 13.9062 11.6772 12.484C12.8429 11.0617 14.6124 10.2259 14.6124 7.20768C14.6124 3.77911 11.5409 1 7.75151 1C3.96217 1 0.890625 3.77911 0.890625 7.20768C0.890625 8.12146 1.3469 9.21649 1.3469 9.21649" stroke="#3872E9" stroke-width="0.5" stroke-miterlimit="10"/>
    <path d="M7.09766 7.77734C8.61673 7.77734 9.67119 8.67602 9.67119 10.2871" stroke="#3872E9" stroke-width="0.5" stroke-miterlimit="10"/>
    <path d="M4.06392 11.2097C5.14897 11.8214 5.519 12.5691 5.519 13.6691C5.519 14.3891 6.16447 14.9756 6.96296 14.9756C7.76145 14.9756 8.40692 14.3916 8.40692 13.6691C8.40692 12.4608 8.29285 11.3733 9.6756 10.2859C11.0584 9.1984 12.1267 8.30475 12.1267 7.20721C12.1267 5.02218 10.1681 3.25 7.75311 3.25C5.33816 3.25 3.26543 5.0247 3.3795 7.20721C3.39619 7.54201 3.4407 7.80129 3.82186 8.48852" stroke="#3872E9" stroke-width="0.5" stroke-miterlimit="10"/>
</svg>