<svg width="28" height="29" viewBox="0 0 28 29" fill="none" xmlns="http://www.w3.org/2000/svg">
    <path d="M24.8716 6.11899C16.9328 -3.56229 1.39577 1.11741 0.0778519 13.5801C-0.7876 21.8484 5.67203 29.1411 14.0057 28.9332C-0.295641 28.669 -4.59164 9.36755 8.03145 2.87209C16.9114 -1.5402 27.3873 4.9239 27.4597 14.8676C27.4893 17.6342 26.6337 20.3925 25.0624 22.6622V18.9531C25.0624 18.8029 24.9407 18.6824 24.7926 18.6824H23.4121V16.4556C23.4121 16.3054 23.2904 16.1849 23.1423 16.1849H22.5368C22.4743 15.5428 22.1864 14.9238 21.729 14.4682C20.0326 12.7729 17.1746 13.8723 16.9607 16.1849H16.3536C16.2039 16.1849 16.0838 16.307 16.0838 16.4556V17.3354H15.1196V13.935C15.1196 13.7848 14.9978 13.6643 14.8498 13.6643H14.366V12.6145C14.366 12.4642 14.2443 12.3437 14.0962 12.3437H13.5829C13.4414 11.4953 12.951 8.5389 12.951 8.5389C12.9 8.23188 12.4525 8.24673 12.4163 8.55211C12.4163 8.55211 12.0165 11.9212 11.9655 12.3454H11.4242C11.2744 12.3454 11.1543 12.4675 11.1543 12.6161V18.514H9.92031V17.479C9.92031 17.3816 9.86766 17.2876 9.77717 17.2397L7.31902 15.934C7.24333 15.8944 7.14955 15.8911 7.06893 15.934C6.22322 16.3681 5.37422 16.794 4.53345 17.238C4.4446 17.2826 4.38372 17.375 4.38537 17.4807C4.38537 17.4807 4.41827 19.6943 4.42486 20.0789C4.09743 20.0838 3.22704 20.097 3.22704 20.097H3.19249C3.08554 20.0987 3.00163 20.1994 3.01809 20.305C3.08884 20.6682 3.13655 21.2046 3.2254 21.5595C3.26324 21.3499 3.30602 21.1419 3.33564 20.9323L3.39981 20.5163C3.66964 20.5212 4.65685 20.5361 4.65685 20.5361C4.7819 20.5378 4.88555 20.4371 4.8872 20.3116C4.8872 20.3067 4.91846 18.2549 4.92669 17.6474C5.68355 17.2644 6.43547 16.8699 7.19068 16.4787L9.38064 17.6424V18.7847C9.38064 18.9349 9.50239 19.0554 9.65047 19.0554H11.4258C11.5755 19.0554 11.6956 18.9333 11.6956 18.7847V12.8868H12.2057C12.3406 12.8868 12.4574 12.7861 12.4739 12.6475L12.7289 10.4999C12.9066 11.5745 13.0876 12.659 13.0876 12.659C13.109 12.7878 13.2192 12.8852 13.3541 12.8852H13.8264V13.935C13.8264 14.0852 13.9481 14.2057 14.0962 14.2057H14.5799V17.6061C14.5799 17.7563 14.7017 17.8768 14.8498 17.8768H16.3536C16.5033 17.8768 16.6235 17.7547 16.6235 17.6061V16.7263H17.2174C17.3671 16.7263 17.4889 16.6058 17.4873 16.4556C17.4873 14.4467 19.929 13.4299 21.3472 14.8511C21.7684 15.2704 22.012 15.8597 22.0087 16.4556C22.0087 16.6058 22.1288 16.728 22.2785 16.7263H22.8725V18.9531C22.8725 19.1033 22.9942 19.2238 23.1423 19.2238H24.5228C24.5228 20.1994 24.5228 23.4875 24.5228 23.4875C24.5195 23.7384 24.8485 23.8556 25.0048 23.6559C25.9789 22.4162 26.7423 21.0099 27.2507 19.516C28.8122 15.0261 27.8924 9.78847 24.8716 6.11899Z" fill="#232221"/>
</svg>