<svg width="21" height="28" viewBox="0 0 21 28" fill="none" xmlns="http://www.w3.org/2000/svg">
    <path d="M1 0.984375V19.4987H19.7771V3.93383L16.788 0.984375H1Z" stroke="#6161FF" stroke-width="0.5" stroke-miterlimit="10"/>
    <path d="M14.8668 0.984375H4.32812V7.92723H14.8668V0.984375Z" stroke="#6161FF" stroke-width="0.5" stroke-miterlimit="10"/>
    <path d="M7.9401 1.85938H5.03125V7.05058H7.9401V1.85938Z" stroke="#6161FF" stroke-width="0.5" stroke-miterlimit="10"/>
    <path d="M15.0831 11.3809H4.32812V16.0094H15.0831V11.3809Z" stroke="#6161FF" stroke-width="0.5" stroke-miterlimit="10"/>
    <path d="M15.0831 13.6934H4.32812V18.3219H15.0831V13.6934Z" stroke="#6161FF" stroke-width="0.5" stroke-miterlimit="10"/>
    <path d="M1.4375 27.8737V23.166H3.20287C3.7512 23.166 4.16357 23.2957 4.43773 23.555C4.7119 23.8144 4.84787 24.1858 4.84787 24.6693C4.84787 24.9638 4.79215 25.2363 4.6807 25.4869C4.56925 25.7374 4.39093 25.9374 4.14574 26.0869C3.90055 26.2363 3.57511 26.3111 3.16943 26.3111H2.54086V27.8737H1.4375V27.8737ZM3.03569 25.355C3.16943 25.355 3.28534 25.3287 3.37896 25.2803C3.47481 25.2298 3.54836 25.1528 3.59963 25.0517C3.6509 24.9506 3.67542 24.8276 3.67542 24.6825C3.67542 24.5155 3.62861 24.3792 3.53276 24.2759C3.43691 24.1726 3.27643 24.1199 3.05353 24.1199H2.53863V25.3528H3.03346L3.03569 25.355Z" fill="#6161FF"/>
    <path d="M8.52734 27.8737V23.166H9.97174C10.4309 23.166 10.821 23.2539 11.142 23.4254C11.4629 23.599 11.7081 23.8539 11.882 24.188C12.0536 24.5221 12.1406 24.933 12.1406 25.421C12.1406 25.9528 12.0469 26.4012 11.8619 26.766C11.6769 27.1309 11.4161 27.4078 11.0795 27.5924C10.743 27.7792 10.344 27.8737 9.88035 27.8737H8.52957H8.52734ZM9.89149 26.9177C10.2526 26.9177 10.5201 26.7946 10.6939 26.5484C10.8678 26.3023 10.9547 25.9418 10.9547 25.4671C10.9547 25.1638 10.9168 24.9133 10.8433 24.7133C10.7697 24.5133 10.6583 24.366 10.5134 24.2671C10.3663 24.1704 10.1835 24.1221 9.96505 24.1221H9.63739V26.9177H9.89149V26.9177Z" fill="#6161FF"/>
    <path d="M15.8828 27.8737V23.166H19.0926V24.155H17.0263V25.1374H19.0123V26.1265H17.0263V27.8737H15.8828V27.8737Z" fill="#6161FF"/>
</svg>