<svg width="1323" height="142" viewBox="0 0 1323 142" fill="none" xmlns="http://www.w3.org/2000/svg">
    <path d="M244 139L1323 139" stroke="#6161FF"/>
    <path d="M27.7726 115.231C27.7459 114.929 27.6916 114.626 27.6373 114.328C27.5457 113.819 27.4496 113.298 27.1854 112.854C26.9212 112.41 26.4505 112.053 25.9354 112.074C25.9763 111.904 25.963 111.722 25.8972 111.56C26.0653 111.606 26.2601 111.503 26.3162 111.337C26.4488 111.429 26.6151 111.472 26.7761 111.455L26.7948 111.241C26.5822 111.085 26.3918 110.9 26.2299 110.692L26.5164 109.314L25.2815 108.5L24.9461 109.632C24.4844 109.75 24.0155 109.839 23.5431 109.9C23.7219 110.065 23.9604 110.161 24.2033 110.167C24.3572 110.171 24.5111 110.14 24.665 110.134C25.0102 110.123 25.3696 110.26 25.5742 110.539C25.7788 110.818 25.7886 111.242 25.5555 111.496C25.2824 111.794 24.7522 111.759 24.4764 111.462C24.2006 111.166 24.1775 110.686 24.3669 110.329C24.1428 110.706 24.2486 111.245 24.5983 111.51C24.6783 111.57 24.7717 111.621 24.8225 111.709C24.9301 111.897 24.8011 112.19 24.9701 112.346C24.641 112.542 24.3002 112.748 24.0849 113.065C23.9613 113.248 23.8856 113.459 23.7709 113.646C23.5769 113.961 23.27 114.204 22.9186 114.319C22.7033 114.39 22.4657 114.418 22.2851 114.555C22.1223 114.679 22.0343 114.876 22.0076 115.082" stroke="#6161FF" stroke-linecap="round" stroke-linejoin="round"/>
    <path d="M249.563 124.089L249.291 128.921C249.291 128.921 248.425 128.931 247.757 129.601C247.089 130.271 247.094 131.323 247.094 131.323L247.457 138.365C247.457 138.365 246.514 139.175 244.02 138.995C241.526 138.815 239.681 135.53 239.681 135.53C239.681 135.53 238.616 139.171 235.342 138.995C232.068 138.818 231.003 135.53 231.003 135.53C231.003 135.53 229.88 138.822 226.664 138.995C223.449 139.168 222.325 135.53 222.325 135.53C222.325 135.53 222.06 138.995 217.987 138.995C213.913 138.995 213.648 135.53 213.648 135.53C213.648 135.53 212.48 138.846 209.309 138.995C206.138 139.144 204.97 135.53 204.97 135.53C204.97 135.53 204.345 138.688 200.631 138.995C196.918 139.302 196.292 135.53 196.292 135.53C196.292 135.53 194.887 138.995 191.953 138.995C189.019 138.995 187.614 135.53 187.614 135.53C187.614 135.53 186.756 138.995 183.276 138.995C179.795 138.995 178.937 135.53 178.937 135.53C178.937 135.53 178.608 138.995 174.598 138.995C170.587 138.995 170.259 135.53 170.259 135.53C170.259 135.53 169.653 138.995 165.92 138.995C162.187 138.995 161.581 135.53 161.581 135.53C161.581 135.53 161.655 138.995 157.242 138.995C152.83 138.995 152.903 135.53 152.903 135.53C152.903 135.53 152.225 138.995 148.565 138.995C144.904 138.995 144.226 135.53 144.226 135.53C144.226 135.53 143.33 138.995 139.887 138.995C136.444 138.995 135.548 135.53 135.548 135.53C135.548 135.53 134.695 138.995 131.209 138.995C127.723 138.995 126.87 135.53 126.87 135.53C126.87 135.53 127.008 138.995 122.531 138.995C118.055 138.995 118.192 135.53 118.192 135.53C118.192 135.53 116.677 138.88 113.854 138.995C111.03 139.11 109.515 135.53 109.515 135.53C109.515 135.53 108.428 138.853 105.176 138.995C101.924 139.137 100.837 135.53 100.837 135.53C100.837 135.53 99.2738 138.995 96.4981 138.995C93.7223 138.995 92.1592 135.53 92.1592 135.53C92.1592 135.53 90.6397 138.995 87.8203 138.995C85.001 138.995 83.4814 135.53 83.4814 135.53C83.4814 135.53 82.4708 138.995 79.1426 138.995C75.8143 138.995 74.8037 135.53 74.8037 135.53C74.8037 135.53 73.8055 138.791 70.4648 138.995C67.1241 139.199 66.1259 135.53 66.1259 135.53C66.1259 135.53 64.4925 138.9 61.7871 138.995C59.0816 139.09 57.4482 135.53 57.4482 135.53C57.4482 135.53 55.6706 138.613 53.1093 138.995C50.548 139.377 48.7704 135.53 48.7704 135.53C48.7704 135.53 47.7536 138.826 44.4316 138.995C41.1096 139.164 40.0927 135.53 40.0927 135.53C40.0927 135.53 39.6007 138.995 35.7538 138.995C31.9069 138.995 31.4149 135.53 31.4149 135.53C31.4149 135.53 30.084 138.995 27.0761 138.995C24.0681 138.995 22.7372 135.53 22.7372 135.53C22.7372 135.53 21.2826 138.995 18.3983 138.995C15.514 138.995 14.0594 135.53 14.0594 135.53C14.0594 135.53 14.0594 138.995 9.72057 138.995C7.98395 138.995 5.31941 134.768 4.04186 131.354C2.76431 127.939 2.36841 125.279 2.20204 124.377C2.03568 123.474 1.69939 127.336 14.1529 127.733C24.4026 128.06 105.019 127.733 112.316 127.733H208.683C208.683 127.733 236.387 127.544 240.978 127.733C244.966 127.898 249.618 125.527 249.543 124.089L245.978 124.14C245.978 124.14 22.7336 125.028 18.4588 125.004C9.54886 124.954 2.16379 123.796 2.15756 122.346C2.154 121.438 4.09079 121.494 4.09079 121.494V115.311L245.978 114.504V124.14" stroke="#6161FF" stroke-linecap="round" stroke-linejoin="round"/>
    <path d="M40.1247 106.641H34.4309V115.231H40.1247V106.641Z" stroke="#6161FF" stroke-linecap="round" stroke-linejoin="round"/>
    <path d="M53.9109 107.759H45.9929V111.684H53.9109V107.759Z" stroke="#6161FF" stroke-linecap="round" stroke-linejoin="round"/>
    <path d="M72.1763 106.897H65.3259V115.096H72.1763V106.897Z" stroke="#6161FF" stroke-linecap="round" stroke-linejoin="round"/>
    <path d="M162.981 107.894H157.198V114.79H162.981V107.894Z" stroke="#6161FF" stroke-linecap="round" stroke-linejoin="round"/>
    <path d="M172.331 107.886H166.815V114.758H172.331V107.886Z" stroke="#6161FF" stroke-linecap="round" stroke-linejoin="round"/>
    <path d="M197.764 108.279H190.024V112.472H197.764V108.279Z" stroke="#6161FF" stroke-linecap="round" stroke-linejoin="round"/>
    <path d="M218.954 107.886H212.993V114.504H218.954V107.886Z" stroke="#6161FF" stroke-linecap="round" stroke-linejoin="round"/>
    <path d="M2.17798 122.346V124.376" stroke="#6161FF" stroke-linecap="round" stroke-linejoin="round"/>
    <path d="M29.4692 115.231L30.1721 103.399H43.5659L43.4351 88.8845C43.4351 88.8845 44.3123 88.2993 45.1344 87.352C45.9564 86.4047 46.5071 85.2228 46.5071 85.2228H65.6793C65.6793 85.2228 66.2291 86.4047 67.0521 87.352C67.8741 88.2993 68.7513 88.8845 68.7513 88.8845L68.6205 103.399H75.777L75.8232 74.5132L75.8588 52.4002C75.8588 52.4002 75.107 52.328 75.075 51.6143C75.043 50.9007 75.5546 50.923 75.7939 50.8936C76.0332 50.8642 76.7778 50.6528 76.7414 51.4832C76.7049 52.3137 80.7813 52.8266 83.5375 53.121C86.2936 53.4162 86.9013 54.1905 89.0596 54.5955C91.2179 54.9995 90.9688 54.3029 93.4056 54.7596C95.8424 55.2163 96.2783 57.3705 98.6662 57.053C101.054 56.7354 102.255 56.2448 104.057 56.0048C105.86 55.7649 109.089 55.6775 109.089 55.6775C109.089 55.6775 108.871 57.152 107.619 58.2331C106.367 59.3142 104.055 60.8949 103.273 61.0831C102.491 61.2713 99.5807 62.0001 99.5807 62.0001C99.5807 62.0001 102.592 63.1463 104.482 63.1463C106.372 63.1463 106.951 63.834 107.945 64.2604C108.94 64.6859 111.016 65.7349 111.016 65.7349C111.016 65.7349 104.54 67.1247 99.5149 68.1264C94.4901 69.1282 91.693 71.2181 88.21 71.7953C84.727 72.3724 76.7876 74.3179 76.7876 74.3179V103.4H83.0232L83.1611 101.733C83.1611 101.733 85.3426 102.179 87.2563 100.809C89.1699 99.4388 89.0738 98.6984 89.0738 98.6984L139.611 98.7163" stroke="#6161FF" stroke-linecap="round" stroke-linejoin="round"/>
    <path d="M67.4292 89.5054H44.7571V103.399H67.4292V89.5054Z" stroke="#6161FF" stroke-linecap="round" stroke-linejoin="round"/>
    <path d="M129.341 98.6973L135.403 98.6393L135.491 92.2569L133.425 92.2953L131.267 92.3354L131.026 98.6652L139.612 98.7142L139.945 77.0793L138.92 77.0526L138.93 76.5495L137.667 74.3738C137.667 74.3738 138.699 73.7485 139.439 73.7485C140.179 73.7485 140.936 74.3444 140.936 74.3444L139.952 76.57L139.936 76.5495L138.92 76.5432L137.989 98.724L141.696 98.6955L141.704 103.401H146.344L146.677 90.323C146.677 90.323 148.512 89.6656 151.234 89.6656C153.957 89.6656 155.179 90.4274 155.179 90.4274L155.137 103.402H157.029L157.683 44.9499H156.789L156.793 41.9589H159.71V39.4782C159.71 39.4782 157 38.7307 157.108 36.2037C157.215 33.6766 159.135 32.7302 160.397 32.5803C162.024 32.2627 160.219 30.1246 164.007 29.2308C162.036 24.5094 167.826 20.7156 171.54 23.2561C172.728 17.4937 179.922 13.3779 186.582 19.0449C185.693 16.7595 189.757 13.7963 192.111 17.0254C191.709 14.7222 196.175 14.5224 196.017 16.0263C196.304 13.2967 200.813 13.9479 200.767 15.9514C200.835 12.9444 207.04 12.6197 207.71 14.8346C206.665 11.3816 213.123 8.41563 215.809 12.3851C217.03 6.36757 225.556 8.51911 227.252 10.924C227.436 8.06507 232.983 7.5593 233.766 10.1934C235.879 4.23476 243.359 8.74211 242.938 8.60385C242.938 8.60385 243.135 3.37932 246.246 2.55332C248.838 1.86557 250.419 3.31956 250.744 4.84579C251.505 8.42634 246.43 9.71976 246.537 8.99009C244.907 19.9868 227.595 18.8299 226.481 15.0486C229.445 25.1106 210.203 30.0871 203.295 24.6726C197.359 20.0198 196.916 33.458 189.469 27.858C187.334 31.8658 183.446 32.9639 180.047 30.4314C179.831 35.0467 174.634 36.9592 171.176 34.5561C170.907 36.5872 168.334 37.8494 165.562 36.8762C165.562 36.8762 164.031 38.8092 163.158 39.5068C162.286 40.2043 162.472 41.958 162.472 41.958H164.713V44.949H163.719L164.059 103.401H176.408L177.513 47.8212C177.513 47.8212 176.975 47.7624 176.997 47.3199C177.019 46.8775 177.087 46.6144 177.481 46.5921C177.875 46.5698 178.12 47.1888 178.11 47.2709C178.1 47.3529 177.933 47.9176 177.933 47.9176V49.1628C177.933 49.1628 180.45 48.3796 182.949 48.6776C185.448 48.9755 186.867 50.5785 190.046 50.9576C193.224 51.3367 194.546 50.0798 196.659 50.6177C198.771 51.1565 199.368 52.7764 201.868 53.1974C204.368 53.6176 204.513 52.5668 207.497 52.8736C210.481 53.1805 209.981 54.6853 211.626 54.6853C213.271 54.6853 215.771 55.0252 217.449 54.7504C219.127 54.4757 220.514 54.993 221.885 55.1384C223.256 55.2838 226.159 55.3079 228.708 55.3079C231.257 55.3079 236.804 57.2489 237.466 57.2159C238.127 57.1838 233.938 59.2435 230.563 59.7716C227.187 60.2987 221.998 62.9739 221.998 62.9739C221.998 62.9739 226.458 64.6767 228.74 64.947C231.022 65.2173 230.142 66.1762 232.643 66.1762C235.143 66.1762 237.369 66.2119 238.11 65.9015C238.852 65.5911 236.258 68.3081 231.585 69.895C226.911 71.4819 223.311 73.8252 219.75 73.6995C216.189 73.5737 213.175 73.216 210.528 74.0019C207.881 74.7877 205.855 78.2095 201.508 78.461C197.161 78.7126 196.168 78.5618 191.62 77.9071C187.072 77.2524 183.489 77.478 181.771 77.9829C180.053 78.4878 177.751 79.6706 177.751 79.6706L177.596 103.401H190.155L190.024 93.3461C190.024 93.3461 190.902 92.7609 191.724 91.8136C192.546 90.8663 193.096 89.6844 193.096 89.6844H212.269C212.269 89.6844 212.818 90.8663 213.641 91.8136C214.463 92.7609 215.341 93.3461 215.341 93.3461L215.21 103.401H222.538L222.4 114.502" stroke="#6161FF" stroke-linecap="round" stroke-linejoin="round"/>
    <path d="M214.018 93.9688H191.346V103.403H214.018V93.9688Z" stroke="#6161FF" stroke-linecap="round" stroke-linejoin="round"/>
    <path d="M180.296 114.723C180.34 114.021 180.357 113.317 180.347 112.614C180.336 111.904 180.354 111.072 180.926 110.655C181.058 110.559 181.212 110.492 181.318 110.369C181.424 110.246 181.459 110.036 181.333 109.932C180.784 109.691 180.656 108.826 181.113 108.435C180.813 108.198 180.532 107.938 180.273 107.657L180.464 107.485L181.272 108.25L181.683 107.227C181.708 107.164 181.739 107.096 181.8 107.067C181.898 107.021 182.007 107.104 182.085 107.18L183.161 108.236C183.264 108.337 183.374 108.455 183.373 108.6C183.372 108.882 182.993 108.97 182.711 108.968C183.05 109.224 183.341 109.543 183.566 109.904C183.399 110.019 183.177 109.864 183.062 109.696C182.947 109.529 182.836 109.319 182.636 109.288C182.663 109.564 182.591 109.848 182.435 110.079C182.841 110.06 183.179 110.424 183.292 110.814C183.406 111.205 183.355 111.622 183.341 112.028C183.307 113.028 183.51 113.803 183.929 114.71" stroke="#6161FF" stroke-linecap="round" stroke-linejoin="round"/>
</svg>