<svg width="377" height="101" viewBox="0 0 377 101" fill="none" xmlns="http://www.w3.org/2000/svg">
  <g clip-path="url(#clip0_306_3)">
    <path d="M148.679 100.471C148.679 100.471 149.061 97.5688 148.949 96.13C148.905 95.5671 148.772 94.9816 148.976 94.4533C149.142 94.0239 149.511 93.6889 149.675 93.2586C149.839 92.8283 149.633 92.1993 149.158 92.2002C149.497 91.7926 150.823 90.4518 150.856 89.9298C149.791 89.5567 148.336 90.3011 146.691 89.5957C146.691 89.5957 146.342 89.3915 146.056 88.904C145.567 88.0725 145.81 87.0222 145.955 86.0772C146.241 84.2062 146.528 82.3353 146.92 80.4825C147.629 77.1373 148.682 73.8602 150.059 70.7138C150.157 70.4914 150.267 70.2554 150.48 70.1265" stroke="#6161FF" stroke-linecap="round" stroke-linejoin="round"/>
    <path d="M162.056 73.1611C163.76 78.4789 162.974 86.2579 165.898 91.1085C167.934 90.5868 168.825 90.4534 170.202 91.0692C168.418 90.3335 167.618 90.823 165.981 91.088C165.748 91.1255 166.45 92.0661 166.527 92.2156C167.205 93.5303 166.757 93.5097 166.774 94.964C166.784 95.8044 166.458 96.6134 166.279 97.4368" stroke="#6161FF" stroke-linecap="round" stroke-linejoin="round"/>
    <path d="M157.984 72.1494C157.219 73.2052 156.592 74.1963 155.827 75.2521C155.106 76.2468 154.381 77.2461 153.817 78.3429C153.117 79.706 152.674 81.1958 152.354 82.7029C151.838 85.1328 151.63 87.6328 151.736 90.1182C150.14 89.9031 148.522 89.8666 147.247 90.1237C146.877 90.1255 146.548 90.4984 146.583 90.8786L146.396 91.3245C145.948 92.5572 145.247 93.6923 144.352 94.6305C143.804 95.2058 143.166 95.7337 142.855 96.475C142.598 97.0868 142.677 97.9082 143.125 98.3359L143.444 98.448" stroke="#6161FF" stroke-linecap="round" stroke-linejoin="round"/>
    <path d="M153.256 41.8047C151.311 42.3633 149.795 43.9293 148.865 45.7019C147.937 47.4746 142.124 56.4733 138.946 59.1601C138.377 59.6416 137.766 60.1958 137.687 60.931C138.221 61.1979 138.9 60.4548 138.575 59.96C137.91 59.9901 137.225 60.0247 136.626 60.3085C136.026 60.5922 135.53 61.1925 135.586 61.8452C135.651 62.6051 136.384 63.1132 137.045 63.5114C140.201 65.4144 143.385 67.3297 146.865 68.5703C154.505 71.2935 163.307 72.5323 170.203 75.1837" stroke="#6161FF" stroke-linecap="round" stroke-linejoin="round"/>
    <path d="M132.527 32.8836L132.651 33.7101C132.651 33.7101 140.79 33.7962 143.997 33.0532C147.204 32.3102 155.273 29.4678 156.116 29.2905C156.958 29.1133 159.002 28.6558 159.002 28.6558" stroke="#6161FF" stroke-linecap="round" stroke-linejoin="round"/>
    <path d="M132.306 29.9816H131.563C131.563 29.9816 128.854 28.383 128.339 28.1925C127.823 28.002 127.856 27.8744 127.162 27.7796C126.467 27.6839 125.276 27.621 125.176 27.6529C125.077 27.6848 124.878 27.8115 124.878 27.971C124.878 28.1305 124.415 28.2873 124.382 28.6063C124.349 28.9253 124.845 28.8606 125.176 28.8606C125.508 28.8606 126.764 28.9873 126.764 28.9873L128.058 29.7392C128.058 29.7392 129.213 30.0746 129.146 30.6743C129.08 31.2741 128.055 31.1155 127.955 31.1155C127.855 31.1155 127.194 31.1857 126.731 31.1346C126.268 31.0836 126.301 31.5284 126.301 31.6241C126.301 31.7198 126.632 31.8784 127.029 31.8784C127.426 31.8784 128.059 32.005 128.338 32.0369C128.617 32.0688 129.378 32.6257 129.742 32.6649C130.107 32.7041 130.9 32.7679 131.595 32.5136C132.289 32.2593 132.527 32.2931 132.527 32.2931" stroke="#6161FF" stroke-linecap="round" stroke-linejoin="round"/>
    <path d="M162.057 22.5786C162.015 21.0916 160.139 20.3669 158.899 20.6103C157.968 20.7933 157.037 21.0962 155.335 21.9271C155.335 21.9271 143.351 27.7606 143.237 27.9894C143.123 28.2182 133.543 29.535 133.237 29.5917C132.931 29.6484 131.508 29.5917 131.508 29.5917L131.624 30.6788" stroke="#6161FF" stroke-linecap="round" stroke-linejoin="round"/>
    <path d="M169.185 23.5981C170.036 24.3527 171.226 24.905 172.155 25.5616C176.066 28.3276 177.496 30.9893 181.404 32.7015" stroke="#6161FF" stroke-linecap="round" stroke-linejoin="round"/>
    <path d="M169.216 75.1841C169.006 80.0901 169.903 86.669 170.265 91.5652C171.174 91.7523 171.047 90.8773 171.479 91.7299C171.912 92.5825 172.146 93.5292 172.534 94.405C173.223 95.9571 174.409 97.2646 175.858 98.0689C176.666 98.5175 177.626 98.9009 178.349 99.4597" stroke="#6161FF" stroke-linecap="round" stroke-linejoin="round"/>
    <path d="M168.166 44.8398C169.445 52.3458 171.606 64.3773 171.162 71.9637C171.072 73.4843 170.873 75.1579 169.661 76.1959" stroke="#6161FF" stroke-linecap="round" stroke-linejoin="round"/>
    <path d="M167.148 22.5869C167.591 23.2744 168.393 23.4751 168.961 24.0204C169.215 24.2643 169.417 24.5738 169.859 25.2469L169.833 25.2028C170.107 25.5367 170.536 30.1637 170.618 31.5666C170.657 32.2109 170.94 32.7958 171.09 33.4167C171.382 34.6172 171.162 35.9291 170.683 37.0432C170.347 37.8261 169.886 38.5351 169.606 39.3486C168.99 41.1393 169.267 43.371 168.2 44.8396" stroke="#6161FF" stroke-linecap="round" stroke-linejoin="round"/>
    <path d="M174.989 14.1258C174.206 16.3124 171.203 17.3636 169.207 16.1504C169.02 16.0366 168.836 15.905 168.623 15.8531C168.171 15.7438 167.7 16.0348 167.447 16.4226C167.194 16.8103 167.107 17.2768 167.005 17.7272C166.788 18.6799 166.752 19.1464 166.362 20.0427C165.873 21.1665 165.034 22.3726 163.8 22.4075C161.862 22.463 160.935 19.6855 159.016 19.4016C157.984 19.2485 157.004 19.8789 155.966 19.9953L156.16 19.4356C154.057 19.4482 151.981 20.4394 150.659 22.0619C151.313 19.8654 153.19 18.0701 155.427 17.4998C153.623 16.7297 151.579 17.6475 149.837 18.5483C150.473 17.0297 152.47 16.7655 154.108 16.5058C158.083 15.8755 161.877 14.5664 163.817 12.3126C165.606 10.2343 168.795 9.40786 169.716 9.43831C171.255 9.48845 173.684 10.04 174.45 11.3644C175.167 12.6045 176.469 12.7343 176.297 14.1545C176.053 16.1736 175.371 17.1407 174.521 17.018C174.262 20.0168 173.205 22.2875 170.853 24.1894C170.646 24.3569 170.424 24.5216 170.164 24.5807C169.689 24.6882 169.189 24.4867 168.788 24.1554" stroke="#6161FF" stroke-linecap="round" stroke-linejoin="round"/>
    <path d="M180.715 33.0734L193.623 32.7017V35.9741C193.623 35.9741 184.009 38.3939 179.138 37.5986C177.504 37.3314 171.221 34.3861 171.221 34.3861" stroke="#6161FF" stroke-linecap="round" stroke-linejoin="round"/>
    <path d="M155.92 29.667C155.603 32.5801 156.562 35.7584 155.142 38.325C154.471 39.5388 153.316 40.4856 152.892 41.8048" stroke="#6161FF" stroke-linecap="round" stroke-linejoin="round"/>
    <path d="M193.721 33.1625L194.294 33.0656C194.294 33.0656 196.562 30.9961 197.011 30.7194C197.46 30.4426 197.41 30.3171 198.039 30.1096C198.669 29.902 199.765 29.651 199.861 29.6678C199.957 29.6846 200.161 29.7844 200.186 29.9485C200.21 30.1125 200.664 30.2025 200.743 30.5247C200.822 30.8468 200.352 30.8597 200.046 30.9111C199.739 30.9625 198.592 31.2906 198.592 31.2906L197.507 32.267C197.507 32.267 196.487 32.7928 196.64 33.4006C196.793 34.0084 197.72 33.6843 197.812 33.6685C197.904 33.6527 198.529 33.621 198.951 33.4965C199.372 33.372 199.41 33.8345 199.424 33.9333C199.439 34.0322 199.156 34.2466 198.788 34.3089C198.42 34.3712 197.853 34.6004 197.599 34.6775C197.345 34.7546 196.724 35.4464 196.393 35.5443C196.062 35.6421 195.334 35.8309 194.651 35.6787C193.967 35.5255 193.624 35.6174 193.624 35.6174" stroke="#6161FF" stroke-linecap="round" stroke-linejoin="round"/>
    <path fill-rule="evenodd" clip-rule="evenodd" d="M-1 100H1.5V98H20.5V100H24H25.5H26.5V98H45.5V100H49H50.5H51.5V98H70.5V100H74H75.5H76.5V98H95.5V100H100H100.5H102.5V98H121.5V100H125H126.5H127.5V98H146.5V100H150H151.5H152.5V98H171.5V100H175H176.5H177.5V98H196.5V100H201H201.5H203.5V98H222.5V100H226H227.5H228.5V98H247.5V100H251H252.5H253.5V98H272.5V100H276H277.5H278.5V98H297.5V100H302H302.5H304.5V98H323.5V100H327H328.5H329.5V98H348.5V100H352H353.5H354.5V98H373.5V100H377H378.5H379.5V98H398.5V100H403.5V111H378.5H377H353.5H352H328.5H327H302.5H302H277.5H276H252.5H251H227.5H226H201.5H201H176.5H175H151.5H150H126.5H125H100.5H100H75.5H74H50.5H49H25.5H24H-1V100Z" fill="#F1EFEF"/>
    <path d="M1.5 100V100.5C1.77614 100.5 2 100.276 2 100H1.5ZM-1 100V99.5C-1.27614 99.5 -1.5 99.7239 -1.5 100H-1ZM1.5 98V97.5C1.22386 97.5 1 97.7239 1 98H1.5ZM20.5 98H21C21 97.7239 20.7761 97.5 20.5 97.5V98ZM20.5 100H20C20 100.276 20.2239 100.5 20.5 100.5V100ZM26.5 100V100.5C26.7761 100.5 27 100.276 27 100H26.5ZM26.5 98V97.5C26.2239 97.5 26 97.7239 26 98H26.5ZM45.5 98H46C46 97.7239 45.7761 97.5 45.5 97.5V98ZM45.5 100H45C45 100.276 45.2239 100.5 45.5 100.5V100ZM51.5 100V100.5C51.7761 100.5 52 100.276 52 100H51.5ZM51.5 98V97.5C51.2239 97.5 51 97.7239 51 98H51.5ZM70.5 98H71C71 97.7239 70.7761 97.5 70.5 97.5V98ZM70.5 100H70C70 100.276 70.2239 100.5 70.5 100.5V100ZM76.5 100V100.5C76.7761 100.5 77 100.276 77 100H76.5ZM76.5 98V97.5C76.2239 97.5 76 97.7239 76 98H76.5ZM95.5 98H96C96 97.7239 95.7761 97.5 95.5 97.5V98ZM95.5 100H95C95 100.276 95.2239 100.5 95.5 100.5V100ZM102.5 100V100.5C102.776 100.5 103 100.276 103 100H102.5ZM102.5 98V97.5C102.224 97.5 102 97.7239 102 98H102.5ZM121.5 98H122C122 97.7239 121.776 97.5 121.5 97.5V98ZM121.5 100H121C121 100.276 121.224 100.5 121.5 100.5V100ZM127.5 100V100.5C127.776 100.5 128 100.276 128 100H127.5ZM127.5 98V97.5C127.224 97.5 127 97.7239 127 98H127.5ZM146.5 98H147C147 97.7239 146.776 97.5 146.5 97.5V98ZM146.5 100H146C146 100.276 146.224 100.5 146.5 100.5V100ZM152.5 100V100.5C152.776 100.5 153 100.276 153 100H152.5ZM152.5 98V97.5C152.224 97.5 152 97.7239 152 98H152.5ZM171.5 98H172C172 97.7239 171.776 97.5 171.5 97.5V98ZM171.5 100H171C171 100.276 171.224 100.5 171.5 100.5V100ZM177.5 100V100.5C177.776 100.5 178 100.276 178 100H177.5ZM177.5 98V97.5C177.224 97.5 177 97.7239 177 98H177.5ZM196.5 98H197C197 97.7239 196.776 97.5 196.5 97.5V98ZM196.5 100H196C196 100.276 196.224 100.5 196.5 100.5V100ZM203.5 100V100.5C203.776 100.5 204 100.276 204 100H203.5ZM203.5 98V97.5C203.224 97.5 203 97.7239 203 98H203.5ZM222.5 98H223C223 97.7239 222.776 97.5 222.5 97.5V98ZM222.5 100H222C222 100.276 222.224 100.5 222.5 100.5V100ZM228.5 100V100.5C228.776 100.5 229 100.276 229 100H228.5ZM228.5 98V97.5C228.224 97.5 228 97.7239 228 98H228.5ZM247.5 98H248C248 97.7239 247.776 97.5 247.5 97.5V98ZM247.5 100H247C247 100.276 247.224 100.5 247.5 100.5V100ZM253.5 100V100.5C253.776 100.5 254 100.276 254 100H253.5ZM253.5 98V97.5C253.224 97.5 253 97.7239 253 98H253.5ZM272.5 98H273C273 97.7239 272.776 97.5 272.5 97.5V98ZM272.5 100H272C272 100.276 272.224 100.5 272.5 100.5V100ZM278.5 100V100.5C278.776 100.5 279 100.276 279 100H278.5ZM278.5 98V97.5C278.224 97.5 278 97.7239 278 98H278.5ZM297.5 98H298C298 97.7239 297.776 97.5 297.5 97.5V98ZM297.5 100H297C297 100.276 297.224 100.5 297.5 100.5V100ZM304.5 100V100.5C304.776 100.5 305 100.276 305 100H304.5ZM304.5 98V97.5C304.224 97.5 304 97.7239 304 98H304.5ZM323.5 98H324C324 97.7239 323.776 97.5 323.5 97.5V98ZM323.5 100H323C323 100.276 323.224 100.5 323.5 100.5V100ZM329.5 100V100.5C329.776 100.5 330 100.276 330 100H329.5ZM329.5 98V97.5C329.224 97.5 329 97.7239 329 98H329.5ZM348.5 98H349C349 97.7239 348.776 97.5 348.5 97.5V98ZM348.5 100H348C348 100.276 348.224 100.5 348.5 100.5V100ZM354.5 100V100.5C354.776 100.5 355 100.276 355 100H354.5ZM354.5 98V97.5C354.224 97.5 354 97.7239 354 98H354.5ZM373.5 98H374C374 97.7239 373.776 97.5 373.5 97.5V98ZM373.5 100H373C373 100.276 373.224 100.5 373.5 100.5V100ZM379.5 100V100.5C379.776 100.5 380 100.276 380 100H379.5ZM379.5 98V97.5C379.224 97.5 379 97.7239 379 98H379.5ZM398.5 98H399C399 97.7239 398.776 97.5 398.5 97.5V98ZM398.5 100H398C398 100.276 398.224 100.5 398.5 100.5V100ZM403.5 100H404C404 99.7239 403.776 99.5 403.5 99.5V100ZM403.5 111V111.5C403.776 111.5 404 111.276 404 111H403.5ZM-1 111H-1.5C-1.5 111.276 -1.27614 111.5 -1 111.5L-1 111ZM1.5 99.5H-1V100.5H1.5V99.5ZM1 98V100H2V98H1ZM20.5 97.5H1.5V98.5H20.5V97.5ZM21 100V98H20V100H21ZM24 99.5H20.5V100.5H24V99.5ZM25.5 99.5H24V100.5H25.5V99.5ZM26.5 99.5H25.5V100.5H26.5V99.5ZM26 98V100H27V98H26ZM45.5 97.5H26.5V98.5H45.5V97.5ZM46 100V98H45V100H46ZM49 99.5H45.5V100.5H49V99.5ZM50.5 99.5H49V100.5H50.5V99.5ZM51.5 99.5H50.5V100.5H51.5V99.5ZM51 98V100H52V98H51ZM70.5 97.5H51.5V98.5H70.5V97.5ZM71 100V98H70V100H71ZM74 99.5H70.5V100.5H74V99.5ZM75.5 99.5H74V100.5H75.5V99.5ZM76.5 99.5H75.5V100.5H76.5V99.5ZM76 98V100H77V98H76ZM95.5 97.5H76.5V98.5H95.5V97.5ZM96 100V98H95V100H96ZM100 99.5H95.5V100.5H100V99.5ZM100.5 99.5H100V100.5H100.5V99.5ZM102.5 99.5H100.5V100.5H102.5V99.5ZM102 98V100H103V98H102ZM121.5 97.5H102.5V98.5H121.5V97.5ZM122 100V98H121V100H122ZM125 99.5H121.5V100.5H125V99.5ZM126.5 99.5H125V100.5H126.5V99.5ZM127.5 99.5H126.5V100.5H127.5V99.5ZM127 98V100H128V98H127ZM146.5 97.5H127.5V98.5H146.5V97.5ZM147 100V98H146V100H147ZM150 99.5H146.5V100.5H150V99.5ZM151.5 99.5H150V100.5H151.5V99.5ZM152.5 99.5H151.5V100.5H152.5V99.5ZM152 98V100H153V98H152ZM171.5 97.5H152.5V98.5H171.5V97.5ZM172 100V98H171V100H172ZM175 99.5H171.5V100.5H175V99.5ZM176.5 99.5H175V100.5H176.5V99.5ZM177.5 99.5H176.5V100.5H177.5V99.5ZM177 98V100H178V98H177ZM196.5 97.5H177.5V98.5H196.5V97.5ZM197 100V98H196V100H197ZM201 99.5H196.5V100.5H201V99.5ZM201.5 99.5H201V100.5H201.5V99.5ZM203.5 99.5H201.5V100.5H203.5V99.5ZM203 98V100H204V98H203ZM222.5 97.5H203.5V98.5H222.5V97.5ZM223 100V98H222V100H223ZM226 99.5H222.5V100.5H226V99.5ZM227.5 99.5H226V100.5H227.5V99.5ZM228.5 99.5H227.5V100.5H228.5V99.5ZM228 98V100H229V98H228ZM247.5 97.5H228.5V98.5H247.5V97.5ZM248 100V98H247V100H248ZM251 99.5H247.5V100.5H251V99.5ZM252.5 99.5H251V100.5H252.5V99.5ZM253.5 99.5H252.5V100.5H253.5V99.5ZM253 98V100H254V98H253ZM272.5 97.5H253.5V98.5H272.5V97.5ZM273 100V98H272V100H273ZM276 99.5H272.5V100.5H276V99.5ZM277.5 99.5H276V100.5H277.5V99.5ZM278.5 99.5H277.5V100.5H278.5V99.5ZM278 98V100H279V98H278ZM297.5 97.5H278.5V98.5H297.5V97.5ZM298 100V98H297V100H298ZM302 99.5H297.5V100.5H302V99.5ZM302.5 99.5H302V100.5H302.5V99.5ZM304.5 99.5H302.5V100.5H304.5V99.5ZM304 98V100H305V98H304ZM323.5 97.5H304.5V98.5H323.5V97.5ZM324 100V98H323V100H324ZM327 99.5H323.5V100.5H327V99.5ZM328.5 99.5H327V100.5H328.5V99.5ZM329.5 99.5H328.5V100.5H329.5V99.5ZM329 98V100H330V98H329ZM348.5 97.5H329.5V98.5H348.5V97.5ZM349 100V98H348V100H349ZM352 99.5H348.5V100.5H352V99.5ZM353.5 99.5H352V100.5H353.5V99.5ZM354.5 99.5H353.5V100.5H354.5V99.5ZM354 98V100H355V98H354ZM373.5 97.5H354.5V98.5H373.5V97.5ZM374 100V98H373V100H374ZM377 99.5H373.5V100.5H377V99.5ZM378.5 99.5H377V100.5H378.5V99.5ZM379.5 99.5H378.5V100.5H379.5V99.5ZM379 98V100H380V98H379ZM398.5 97.5H379.5V98.5H398.5V97.5ZM399 100V98H398V100H399ZM403.5 99.5H398.5V100.5H403.5V99.5ZM404 111V100H403V111H404ZM378.5 111.5H403.5V110.5H378.5V111.5ZM377 111.5H378.5V110.5H377V111.5ZM353.5 111.5H377V110.5H353.5V111.5ZM352 111.5H353.5V110.5H352V111.5ZM328.5 111.5H352V110.5H328.5V111.5ZM327 111.5H328.5V110.5H327V111.5ZM302.5 111.5H327V110.5H302.5V111.5ZM302 111.5H302.5V110.5H302V111.5ZM277.5 111.5H302V110.5H277.5V111.5ZM276 111.5H277.5V110.5H276V111.5ZM252.5 111.5H276V110.5H252.5V111.5ZM251 111.5H252.5V110.5H251V111.5ZM227.5 111.5H251V110.5H227.5V111.5ZM226 111.5H227.5V110.5H226V111.5ZM201.5 111.5H226V110.5H201.5V111.5ZM201 111.5H201.5V110.5H201V111.5ZM176.5 111.5H201V110.5H176.5V111.5ZM175 111.5H176.5V110.5H175V111.5ZM151.5 111.5H175V110.5H151.5V111.5ZM150 111.5H151.5V110.5H150V111.5ZM126.5 111.5H150V110.5H126.5V111.5ZM125 111.5H126.5V110.5H125V111.5ZM100.5 111.5H125V110.5H100.5V111.5ZM100 111.5H100.5V110.5H100V111.5ZM75.5 111.5H100V110.5H75.5V111.5ZM74 111.5H75.5V110.5H74V111.5ZM50.5 111.5H74V110.5H50.5V111.5ZM49 111.5H50.5V110.5H49V111.5ZM25.5 111.5H49V110.5H25.5V111.5ZM24 111.5H25.5V110.5H24V111.5ZM-1 111.5H24V110.5H-1V111.5ZM-1.5 100V111H-0.5V100H-1.5Z" fill="#6161FF"/>
  </g>
  <defs>
    <clipPath id="clip0_306_3">
      <rect width="377" height="101" fill="white"/>
    </clipPath>
  </defs>
</svg>
