<svg width="27" height="29" viewBox="0 0 27 29" fill="none" xmlns="http://www.w3.org/2000/svg">
    <path d="M1.48828 9.66241C1.48828 9.66241 7.07374 2.84766 13.891 2.84766C20.7082 2.84766 26.2937 9.66241 26.2937 9.66241" stroke="#6161FF" stroke-width="0.5" stroke-miterlimit="10"/>
    <path d="M0.992188 7.82257C0.992188 7.82257 6.8033 1.00781 13.8913 1.00781C20.9793 1.00781 26.7904 7.82257 26.7904 7.82257" stroke="#6161FF" stroke-width="0.5" stroke-miterlimit="10"/>
    <path d="M1.48828 9.66211C1.48828 9.66211 7.07374 16.4769 13.891 16.4769C20.7082 16.4769 26.2937 9.66211 26.2937 9.66211" stroke="#6161FF" stroke-width="0.5" stroke-miterlimit="10"/>
    <path d="M13.8906 16.3688C17.5926 16.3688 20.5937 13.3665 20.5937 9.6629C20.5937 5.95935 17.5926 2.95703 13.8906 2.95703C10.1886 2.95703 7.1875 5.95935 7.1875 9.6629C7.1875 13.3665 10.1886 16.3688 13.8906 16.3688Z" stroke="#6161FF" stroke-width="0.5" stroke-miterlimit="10"/>
    <path d="M13.8926 14.0115C16.2927 14.0115 18.2383 12.065 18.2383 9.66394C18.2383 7.26286 16.2927 5.31641 13.8926 5.31641C11.4925 5.31641 9.54688 7.26286 9.54688 9.66394C9.54688 12.065 11.4925 14.0115 13.8926 14.0115Z" fill="#6161FF"/>
    <path d="M10.8906 28.875L16.8906 26.2437L10.8906 22.875V28.875Z" fill="#6161FF"/>
    <path d="M2.64844 8.41406C2.98293 8.72479 3.19265 9.17096 3.19265 9.66228C3.19265 10.1536 3.00151 10.5599 2.69357 10.868" stroke="#6161FF" stroke-width="0.5" stroke-miterlimit="10"/>
    <path d="M25.2161 8.41406C24.8816 8.72479 24.6719 9.17096 24.6719 9.66228C24.6719 10.1536 24.863 10.5599 25.171 10.868" stroke="#6161FF" stroke-width="0.5" stroke-miterlimit="10"/>
</svg>