<svg width="28" height="24" viewBox="0 0 28 24" fill="none" xmlns="http://www.w3.org/2000/svg">
    <path d="M12.462 2.12149C9.64481 3.72149 7.63967 5.37149 6.44653 7.07149C5.25338 8.77149 4.65681 10.5715 4.65681 12.4715C4.65681 13.4382 4.9551 14.2548 5.55167 14.9215C6.14824 15.5548 6.84424 16.0882 7.63967 16.5215C8.4351 16.9548 9.1311 17.3215 9.72767 17.6215C10.3574 17.9215 10.6722 18.2048 10.6722 18.4715C10.6722 19.7715 10.2248 20.8548 9.32996 21.7215C8.46824 22.5882 7.32481 23.0215 5.89967 23.0215C4.20938 23.0215 2.81738 22.4215 1.72367 21.2215C0.663098 19.9882 0.132812 18.2548 0.132812 16.0215C0.132812 14.0548 0.547098 12.1715 1.37567 10.3715C2.20424 8.53816 3.4471 6.80482 5.10424 5.17149C6.79453 3.50482 8.88253 1.95482 11.3682 0.521484L12.462 2.12149ZM27.2271 2.12149C24.41 3.72149 22.4048 5.37149 21.2117 7.07149C20.0185 8.77149 19.422 10.5715 19.422 12.4715C19.422 13.4382 19.7202 14.2548 20.3168 14.9215C20.9134 15.5548 21.6094 16.0882 22.4048 16.5215C23.2002 16.9548 23.8962 17.3215 24.4928 17.6215C25.1225 17.9215 25.4374 18.2048 25.4374 18.4715C25.4374 19.7715 24.99 20.8548 24.0951 21.7215C23.2334 22.5882 22.09 23.0215 20.6648 23.0215C18.9745 23.0215 17.5825 22.4215 16.4888 21.2215C15.4282 19.9882 14.898 18.2548 14.898 16.0215C14.898 14.0548 15.3122 12.1715 16.1408 10.3715C16.9694 8.53816 18.2122 6.80482 19.8694 5.17149C21.5597 3.50482 23.6477 1.95482 26.1334 0.521484L27.2271 2.12149Z" fill="#B0B0B0"/>
</svg>